HIERARCHY
ROOT mixamorig:Hips
{
	OFFSET 0.00 0.00 0.00
	CHANNELS 6 Xposition Yposition Zposition Zrotation Yrotation Xrotation
	JOINT mixamorig:Spine
	{
		OFFSET	0.0000	9.9235	-1.2273
		CHANNELS 3 Zrotation Yrotation Xrotation
		JOINT mixamorig:Spine1
		{
			OFFSET	-0.0001	11.6455	-1.4224
			CHANNELS 3 Zrotation Yrotation Xrotation
			JOINT mixamorig:Spine2
			{
				OFFSET	0.0001	13.3602	-1.6265
				CHANNELS 3 Zrotation Yrotation Xrotation
				JOINT mixamorig:Neck
				{
					OFFSET	0.0000	15.0325	0.7929
					CHANNELS 3 Zrotation Yrotation Xrotation
					JOINT mixamorig:Head
					{
						OFFSET	-0.0000	10.3218	3.1424
						CHANNELS 3 Zrotation Yrotation Xrotation
						JOINT mixamorig:HeadTop_End
						{
							OFFSET	0.0002	18.4747	6.6364
							CHANNELS 3 Zrotation Yrotation Xrotation
							End Site
							{
								OFFSET 0.0000 0.0000 0.0000
							}
						}
						JOINT mixamorig:LeftEye
						{
							OFFSET	2.9479	7.6817	9.1207
							CHANNELS 3 Zrotation Yrotation Xrotation
							End Site
							{
								OFFSET 0.0000 0.0000 0.0000
							}
						}
						JOINT mixamorig:RightEye
						{
							OFFSET	-2.9445	7.6817	9.1205
							CHANNELS 3 Zrotation Yrotation Xrotation
							End Site
							{
								OFFSET 0.0000 0.0000 0.0000
							}
						}
					}
				}
				JOINT mixamorig:LeftShoulder
				{
					OFFSET	6.1059	9.1104	0.7056
					CHANNELS 3 Zrotation Yrotation Xrotation
					JOINT mixamorig:LeftArm
					{
						OFFSET	12.6532	-0.3431	-2.6009
						CHANNELS 3 Zrotation Yrotation Xrotation
						JOINT mixamorig:LeftForeArm
						{
							OFFSET	27.3517	-0.9645	-1.4034
							CHANNELS 3 Zrotation Yrotation Xrotation
							JOINT mixamorig:LeftHand
							{
								OFFSET	27.5619	-0.7072	1.5500
								CHANNELS 3 Zrotation Yrotation Xrotation
								JOINT mixamorig:LeftHandMiddle1
								{
									OFFSET	12.6630	-1.3962	0.9548
									CHANNELS 3 Zrotation Yrotation Xrotation
									JOINT mixamorig:LeftHandMiddle2
									{
										OFFSET	3.6093	-0.1669	0.0778
										CHANNELS 3 Zrotation Yrotation Xrotation
										JOINT mixamorig:LeftHandMiddle3
										{
											OFFSET	3.4004	-0.6274	0.1148
											CHANNELS 3 Zrotation Yrotation Xrotation
											End Site
											{
												OFFSET 3.6205 -0.6493 0.1199
											}
										}
									}
								}
								JOINT mixamorig:LeftHandThumb1
								{
									OFFSET	3.3268	-2.0474	3.5790
									CHANNELS 3 Zrotation Yrotation Xrotation
									JOINT mixamorig:LeftHandThumb2
									{
										OFFSET	3.4890	-1.4806	2.8548
										CHANNELS 3 Zrotation Yrotation Xrotation
										JOINT mixamorig:LeftHandThumb3
										{
											OFFSET	3.4086	-1.7658	2.1133
											CHANNELS 3 Zrotation Yrotation Xrotation
											End Site
											{
												OFFSET 2.7231 -1.1597 1.7903
											}
										}
									}
								}
								JOINT mixamorig:LeftHandIndex1
								{
									OFFSET	11.9722	-1.1061	3.7324
									CHANNELS 3 Zrotation Yrotation Xrotation
									JOINT mixamorig:LeftHandIndex2
									{
										OFFSET	3.8387	-0.6406	-0.0310
										CHANNELS 3 Zrotation Yrotation Xrotation
										JOINT mixamorig:LeftHandIndex3
										{
											OFFSET	3.3346	-0.7374	-0.0133
											CHANNELS 3 Zrotation Yrotation Xrotation
											End Site
											{
												OFFSET 2.9714 -0.8030 0.0009
											}
										}
									}
								}
								JOINT mixamorig:LeftHandRing1
								{
									OFFSET	12.1659	-1.6805	-1.2769
									CHANNELS 3 Zrotation Yrotation Xrotation
									JOINT mixamorig:LeftHandRing2
									{
										OFFSET	3.5925	-0.2366	-0.0771
										CHANNELS 3 Zrotation Yrotation Xrotation
										JOINT mixamorig:LeftHandRing3
										{
											OFFSET	3.2906	-0.3266	-0.0615
											CHANNELS 3 Zrotation Yrotation Xrotation
											End Site
											{
												OFFSET 3.5423 -0.9211 -0.0200
											}
										}
									}
								}
								JOINT mixamorig:LeftHandPinky1
								{
									OFFSET	11.0508	-2.1872	-3.8040
									CHANNELS 3 Zrotation Yrotation Xrotation
									JOINT mixamorig:LeftHandPinky2
									{
										OFFSET	4.1236	-0.3047	0.1212
										CHANNELS 3 Zrotation Yrotation Xrotation
										JOINT mixamorig:LeftHandPinky3
										{
											OFFSET	2.5805	-0.2597	0.0823
											CHANNELS 3 Zrotation Yrotation Xrotation
											End Site
											{
												OFFSET 2.9027 -0.3379 0.0963
											}
										}
									}
								}
							}
						}
					}
				}
				JOINT mixamorig:RightShoulder
				{
					OFFSET	-6.1057	9.1105	0.7056
					CHANNELS 3 Zrotation Yrotation Xrotation
					JOINT mixamorig:RightArm
					{
						OFFSET	-12.6532	-0.3429	-2.6009
						CHANNELS 3 Zrotation Yrotation Xrotation
						JOINT mixamorig:RightForeArm
						{
							OFFSET	-27.3518	-0.9642	-1.4034
							CHANNELS 3 Zrotation Yrotation Xrotation
							JOINT mixamorig:RightHand
							{
								OFFSET	-27.5619	-0.7068	1.5501
								CHANNELS 3 Zrotation Yrotation Xrotation
								JOINT mixamorig:RightHandMiddle1
								{
									OFFSET	-12.6630	-1.3960	0.9549
									CHANNELS 3 Zrotation Yrotation Xrotation
									JOINT mixamorig:RightHandMiddle2
									{
										OFFSET	-3.6093	-0.1669	0.0778
										CHANNELS 3 Zrotation Yrotation Xrotation
										JOINT mixamorig:RightHandMiddle3
										{
											OFFSET	-3.4004	-0.6273	0.1148
											CHANNELS 3 Zrotation Yrotation Xrotation
											End Site
											{
												OFFSET -3.6205 -0.6492 0.1199
											}
										}
									}
								}
								JOINT mixamorig:RightHandThumb1
								{
									OFFSET	-3.3269	-2.0474	3.5790
									CHANNELS 3 Zrotation Yrotation Xrotation
									JOINT mixamorig:RightHandThumb2
									{
										OFFSET	-3.4890	-1.4805	2.8548
										CHANNELS 3 Zrotation Yrotation Xrotation
										JOINT mixamorig:RightHandThumb3
										{
											OFFSET	-3.4086	-1.7658	2.1133
											CHANNELS 3 Zrotation Yrotation Xrotation
											End Site
											{
												OFFSET -2.7231 -1.1596 1.7903
											}
										}
									}
								}
								JOINT mixamorig:RightHandIndex1
								{
									OFFSET	-11.9722	-1.1059	3.7324
									CHANNELS 3 Zrotation Yrotation Xrotation
									JOINT mixamorig:RightHandIndex2
									{
										OFFSET	-3.8387	-0.6406	-0.0310
										CHANNELS 3 Zrotation Yrotation Xrotation
										JOINT mixamorig:RightHandIndex3
										{
											OFFSET	-3.3346	-0.7373	-0.0133
											CHANNELS 3 Zrotation Yrotation Xrotation
											End Site
											{
												OFFSET -2.9715 -0.8029 0.0009
											}
										}
									}
								}
								JOINT mixamorig:RightHandRing1
								{
									OFFSET	-12.1659	-1.6803	-1.2769
									CHANNELS 3 Zrotation Yrotation Xrotation
									JOINT mixamorig:RightHandRing2
									{
										OFFSET	-3.5925	-0.2366	-0.0771
										CHANNELS 3 Zrotation Yrotation Xrotation
										JOINT mixamorig:RightHandRing3
										{
											OFFSET	-3.2906	-0.3265	-0.0615
											CHANNELS 3 Zrotation Yrotation Xrotation
											End Site
											{
												OFFSET -3.5423 -0.9210 -0.0200
											}
										}
									}
								}
								JOINT mixamorig:RightHandPinky1
								{
									OFFSET	-11.0508	-2.1870	-3.8040
									CHANNELS 3 Zrotation Yrotation Xrotation
									JOINT mixamorig:RightHandPinky2
									{
										OFFSET	-4.1236	-0.3046	0.1212
										CHANNELS 3 Zrotation Yrotation Xrotation
										JOINT mixamorig:RightHandPinky3
										{
											OFFSET	-2.5805	-0.2597	0.0823
											CHANNELS 3 Zrotation Yrotation Xrotation
											End Site
											{
												OFFSET -2.9027 -0.3379 0.0963
											}
										}
									}
								}
							}
						}
					}
				}
			}
		}
	}
	JOINT mixamorig:RightUpLeg
	{
		OFFSET	-9.1245	-6.6564	-0.0554
		CHANNELS 3 Zrotation Yrotation Xrotation
		JOINT mixamorig:RightLeg
		{
			OFFSET	0.0000	-40.5610	-1.7662
			CHANNELS 3 Zrotation Yrotation Xrotation
			JOINT mixamorig:RightFoot
			{
				OFFSET	0.4978	-41.9625	-3.3512
				CHANNELS 3 Zrotation Yrotation Xrotation
				JOINT mixamorig:RightToeBase
				{
					OFFSET	-0.3734	-10.4922	12.6406
					CHANNELS 3 Zrotation Yrotation Xrotation
					End Site
					{
						OFFSET 0.0000 0.0000 9.9925
					}
				}
			}
		}
	}
	JOINT mixamorig:LeftUpLeg
	{
		OFFSET	9.1245	-6.6564	-0.0554
		CHANNELS 3 Zrotation Yrotation Xrotation
		JOINT mixamorig:LeftLeg
		{
			OFFSET	-0.0000	-40.5610	-1.7662
			CHANNELS 3 Zrotation Yrotation Xrotation
			JOINT mixamorig:LeftFoot
			{
				OFFSET	-0.4978	-41.9625	-3.3512
				CHANNELS 3 Zrotation Yrotation Xrotation
				JOINT mixamorig:LeftToeBase
				{
					OFFSET	0.3734	-10.4922	12.6406
					CHANNELS 3 Zrotation Yrotation Xrotation
					End Site
					{
						OFFSET -0.0000 0.0000 9.9925
					}
				}
			}
		}
	}
}
MOTION
Frames: 6
Frame Time: 0.0333333
3.9944 98.1354 -0.3676 2.0428 1.0584 -3.9941 -0.3013 -6.0950 9.5957 -1.4755 -1.6294 2.8956 -1.4393 -1.5599 2.9244 3.4236 -0.4099 -0.3503 -0.7953 3.7575 -14.5150 0.0000 -0.0000 0.0000 0.0000 -0.0000 0.0000 0.0000 -0.0000 0.0000 -8.7739 -0.7302 0.6951 -58.9182 -10.5324 11.3843 3.5246 -74.5245 -5.3376 -23.5499 6.5085 -117.6201 -72.3345 -13.8023 3.3652 -59.0772 -2.1534 2.5953 9.3338 0.5526 -0.1696 11.8350 -37.6728 8.7584 -4.7253 -0.2531 -17.9028 9.1908 10.7573 -8.1336 -64.0401 -17.3880 0.7468 -68.4924 -3.2571 0.9847 17.6350 0.9457 0.4282 -70.5843 -11.8674 3.0984 -70.9371 -3.8755 0.7586 8.6979 0.6914 0.2867 -64.9588 -8.4172 2.9553 -66.8567 -2.1819 3.3712 11.4696 0.7213 -0.2262 -1.3262 16.3632 7.3860 61.8067 2.3507 13.0096 -169.3534 80.1106 -171.4886 31.8506 -4.4541 -16.0807 75.2157 -2.5062 5.2002 101.2876 3.2039 6.4780 92.7353 3.4545 5.8808 20.0728 30.2083 66.9121 1.4983 -33.0517 -16.8361 -43.3648 -49.6003 38.6484 13.9317 12.6993 -1.4470 47.7815 3.4118 0.5003 100.0439 5.3398 3.7175 77.3158 3.7008 4.9833 80.2202 5.5043 2.1030 28.9778 2.2389 -0.1759 81.9223 -0.4947 5.7335 48.0813 2.9326 2.5189 78.8131 3.3830 5.0208 0.2894 -8.9177 -32.4141 -1.5583 4.1718 48.6162 -6.5915 -1.4224 6.0562 1.9453 0.0562 -2.8179 -7.4100 1.4568 -11.0632 0.6500 5.8068 17.1569 3.9987 0.5052 -4.4037 0.0000 -0.0000 0.4792 
3.6494 97.7035 -0.1242 2.3711 1.3520 -3.8953 -0.7589 -5.8493 9.3928 -1.5565 -1.5684 2.8499 -1.5213 -1.4993 2.8786 3.4058 -0.4252 -0.3838 -0.9276 3.3960 -14.6002 0.0000 -0.0000 0.0000 0.0000 -0.0000 0.0000 0.0000 -0.0000 0.0000 -8.7739 -0.7302 0.6951 -58.9182 -10.5324 11.3842 3.5247 -74.5245 -5.3376 -23.2507 6.7353 -117.4249 -72.3346 -13.8024 3.3652 -59.0772 -2.1533 2.5952 9.3338 0.5526 -0.1696 11.8350 -37.6728 8.7584 -4.7253 -0.2531 -17.9028 9.1909 10.7573 -8.1336 -64.0401 -17.3880 0.7468 -68.4924 -3.2571 0.9848 17.6350 0.9457 0.4282 -70.5843 -11.8674 3.0984 -70.9371 -3.8755 0.7586 8.6979 0.6914 0.2867 -64.9588 -8.4172 2.9553 -66.8567 -2.1819 3.3712 11.4696 0.7213 -0.2263 -1.3262 16.3632 7.3860 61.8067 2.3507 13.0096 -169.3535 80.1106 -171.4887 32.0191 -4.0855 -16.1321 75.2157 -2.5062 5.2002 101.2876 3.2039 6.4780 92.7353 3.4545 5.8808 20.0728 30.2083 66.9121 1.4983 -33.0517 -16.8361 -43.3648 -49.6003 38.6483 13.9317 12.6993 -1.4470 47.7815 3.4117 0.5004 100.0439 5.3398 3.7175 77.3158 3.7008 4.9833 80.2203 5.5043 2.1030 28.9778 2.2389 -0.1759 81.9223 -0.4947 5.7335 48.0813 2.9326 2.5189 78.8131 3.3830 5.0208 0.0928 -9.3372 -30.8143 -3.1892 4.3339 53.9365 -6.3671 -1.7191 5.6105 8.2550 0.2948 -6.9301 -7.3220 -0.8312 -14.9171 1.5321 7.4811 20.6686 2.2766 0.4681 -4.7999 0.0000 0.0000 0.6789 
3.3648 97.2309 0.0853 2.7328 1.6564 -3.7890 -1.0923 -5.4491 9.1696 -1.6187 -1.4654 2.8079 -1.5849 -1.3968 2.8361 3.3839 -0.4695 -0.4058 -1.1573 2.8325 -14.7681 0.0000 -0.0000 0.0000 0.0000 -0.0000 0.0000 0.0000 -0.0000 0.0000 -8.7739 -0.7302 0.6951 -58.9182 -10.5324 11.3842 3.5246 -74.5245 -5.3375 -22.9339 6.9688 -117.1943 -72.3346 -13.8024 3.3652 -59.0772 -2.1534 2.5953 9.3338 0.5526 -0.1696 11.8350 -37.6728 8.7584 -4.7253 -0.2531 -17.9028 9.1909 10.7573 -8.1336 -64.0401 -17.3880 0.7468 -68.4924 -3.2571 0.9848 17.6350 0.9457 0.4282 -70.5843 -11.8674 3.0984 -70.9371 -3.8755 0.7586 8.6979 0.6914 0.2867 -64.9588 -8.4172 2.9553 -66.8567 -2.1819 3.3712 11.4696 0.7213 -0.2262 -1.3262 16.3632 7.3860 61.8067 2.3507 13.0096 -169.3535 80.1106 -171.4888 32.1784 -3.6808 -16.1837 75.2157 -2.5062 5.2002 101.2876 3.2039 6.4780 92.7353 3.4545 5.8808 20.0728 30.2083 66.9121 1.4983 -33.0517 -16.8361 -43.3648 -49.6003 38.6483 13.9317 12.6994 -1.4470 47.7815 3.4118 0.5004 100.0439 5.3398 3.7175 77.3158 3.7008 4.9833 80.2202 5.5043 2.1030 28.9778 2.2389 -0.1759 81.9223 -0.4947 5.7335 48.0813 2.9326 2.5189 78.8131 3.3830 5.0208 0.0588 -10.5027 -28.2402 -4.5961 5.3835 58.4648 -5.1613 -2.7577 4.3388 10.4053 0.3935 -9.3813 -7.3078 -2.2966 -18.4003 2.2802 8.2405 23.4159 0.5867 0.4027 -5.1125 -0.0000 -0.0000 0.8850 
3.1372 96.7302 0.1983 3.0615 1.9555 -3.6402 -1.3754 -5.0848 8.8707 -1.6742 -1.3737 2.7612 -1.6416 -1.3056 2.7890 3.3593 -0.5299 -0.4210 -1.4501 2.1812 -15.0113 0.0000 -0.0000 0.0000 0.0000 -0.0000 0.0000 0.0000 -0.0000 0.0000 -8.7738 -0.7302 0.6951 -58.9182 -10.5324 11.3842 3.5246 -74.5245 -5.3375 -22.6062 7.2093 -116.9571 -72.3345 -13.8023 3.3652 -59.0772 -2.1534 2.5953 9.3338 0.5526 -0.1696 11.8350 -37.6728 8.7584 -4.7253 -0.2531 -17.9028 9.1909 10.7573 -8.1336 -64.0401 -17.3880 0.7468 -68.4924 -3.2571 0.9848 17.6350 0.9457 0.4282 -70.5843 -11.8674 3.0984 -70.9371 -3.8755 0.7586 8.6979 0.6914 0.2867 -64.9588 -8.4172 2.9553 -66.8567 -2.1819 3.3712 11.4696 0.7213 -0.2263 -1.3262 16.3632 7.3860 61.8067 2.3507 13.0096 -169.3535 80.1106 -171.4888 32.3441 -3.2648 -16.2365 75.2157 -2.5062 5.2002 101.2876 3.2039 6.4780 92.7352 3.4545 5.8808 20.0728 30.2083 66.9121 1.4983 -33.0517 -16.8361 -43.3648 -49.6003 38.6484 13.9317 12.6994 -1.4470 47.7815 3.4118 0.5003 100.0439 5.3398 3.7175 77.3158 3.7008 4.9833 80.2202 5.5043 2.1030 28.9778 2.2389 -0.1759 81.9224 -0.4947 5.7335 48.0813 2.9326 2.5189 78.8131 3.3830 5.0208 -0.0161 -11.7944 -24.6521 -2.7885 7.9423 61.4570 -2.2546 -4.0521 3.7144 7.9517 0.2913 -12.6457 -7.4184 -2.8024 -21.5085 2.6330 8.0409 25.1658 -0.6440 0.3399 -5.0001 -0.0000 -0.0000 1.0723 
2.9655 96.2494 0.3079 3.3875 2.2587 -3.4870 -1.6369 -4.7655 8.5231 -1.7289 -1.2939 2.7099 -1.6974 -1.2264 2.7372 3.3395 -0.5918 -0.4281 -1.7438 1.5395 -15.2900 0.0000 -0.0000 0.0000 0.0000 -0.0000 0.0000 0.0000 -0.0000 0.0000 -8.7739 -0.7302 0.6951 -58.9182 -10.5324 11.3842 3.5246 -74.5245 -5.3375 -22.3047 7.4298 -116.7394 -72.3346 -13.8023 3.3652 -59.0772 -2.1534 2.5952 9.3338 0.5526 -0.1696 11.8350 -37.6728 8.7584 -4.7253 -0.2531 -17.9028 9.1909 10.7573 -8.1336 -64.0401 -17.3880 0.7468 -68.4924 -3.2571 0.9848 17.6350 0.9457 0.4282 -70.5843 -11.8674 3.0984 -70.9371 -3.8755 0.7586 8.6979 0.6914 0.2867 -64.9588 -8.4171 2.9553 -66.8567 -2.1819 3.3712 11.4696 0.7213 -0.2263 -1.3262 16.3632 7.3860 61.8067 2.3507 13.0096 -169.3534 80.1106 -171.4886 32.4969 -2.8836 -16.2847 75.2157 -2.5062 5.2002 101.2876 3.2040 6.4780 92.7352 3.4545 5.8808 20.0728 30.2083 66.9121 1.4983 -33.0517 -16.8361 -43.3648 -49.6003 38.6484 13.9317 12.6993 -1.4470 47.7815 3.4118 0.5004 100.0439 5.3398 3.7175 77.3158 3.7008 4.9833 80.2202 5.5043 2.1030 28.9778 2.2389 -0.1759 81.9224 -0.4947 5.7335 48.0813 2.9326 2.5189 78.8131 3.3830 5.0208 -0.2414 -12.9745 -20.2274 -1.0505 9.7739 62.2183 -0.5403 -4.9822 3.3075 5.8017 0.2082 -15.3285 -7.6871 -2.7574 -24.0537 2.5991 7.3505 25.7675 -1.3981 0.3313 -4.3395 0.0000 -0.0000 1.2158 
2.8206 95.7821 0.4061 3.6903 2.5634 -3.3186 -1.8763 -4.4730 8.1557 -1.7807 -1.2194 2.6578 -1.7501 -1.1523 2.6846 3.3275 -0.6449 -0.4314 -2.0089 0.9702 -15.5857 0.0000 -0.0000 0.0000 0.0000 -0.0000 0.0000 0.0000 -0.0000 0.0000 -8.7739 -0.7302 0.6951 -58.9182 -10.5324 11.3842 3.5246 -74.5245 -5.3376 -22.0678 7.6030 -116.5681 -72.3346 -13.8023 3.3652 -59.0772 -2.1534 2.5953 9.3338 0.5526 -0.1697 11.8350 -37.6728 8.7584 -4.7253 -0.2531 -17.9028 9.1909 10.7572 -8.1336 -64.0401 -17.3880 0.7468 -68.4924 -3.2571 0.9848 17.6350 0.9457 0.4282 -70.5843 -11.8674 3.0984 -70.9371 -3.8755 0.7586 8.6979 0.6914 0.2867 -64.9588 -8.4171 2.9553 -66.8567 -2.1819 3.3712 11.4696 0.7213 -0.2263 -1.3262 16.3632 7.3860 61.8067 2.3507 13.0096 -169.3535 80.1106 -171.4887 32.6171 -2.5846 -16.3226 75.2157 -2.5062 5.2002 101.2876 3.2039 6.4780 92.7352 3.4545 5.8808 20.0728 30.2083 66.9121 1.4983 -33.0517 -16.8361 -43.3648 -49.6003 38.6484 13.9317 12.6993 -1.4469 47.7815 3.4118 0.5003 100.0438 5.3398 3.7175 77.3159 3.7008 4.9833 80.2202 5.5043 2.1030 28.9778 2.2389 -0.1759 81.9223 -0.4947 5.7335 48.0813 2.9326 2.5189 78.8131 3.3830 5.0208 -1.0069 -12.6284 -15.5224 -0.1800 9.6076 60.5784 1.0788 -4.6507 2.7673 2.6769 0.3397 -19.1911 -8.0784 -2.3655 -26.1852 2.3325 6.3648 25.5226 -1.9145 0.3633 -3.3148 0.0000 0.0000 1.2918 
